<svg width="41" height="40" viewBox="0 0 41 40" fill="none" xmlns="http://www.w3.org/2000/svg">
<path fill-rule="evenodd" clip-rule="evenodd" d="M40.5 20C40.5 31.0483 31.5483 40 20.5 40C9.45167 40 0.5 31.0483 0.5 20C0.5 8.95167 9.45167 0 20.5 0C31.5483 0 40.5 8.95167 40.5 20Z" fill="#50B748"/>
<path fill-rule="evenodd" clip-rule="evenodd" d="M24.7052 39.5309C25.0885 39.4525 25.4735 39.3675 25.8502 39.2709C26.4952 39.0942 27.1268 38.8792 27.7452 38.6392C28.3702 38.3975 28.9768 38.1242 29.5685 37.8259C30.1668 37.5192 30.7468 37.1875 31.3068 36.8292C31.8668 36.4709 32.4068 36.0809 32.9335 35.6642C33.4552 35.2542 33.9568 34.8109 34.4318 34.3425C34.9135 33.8792 35.3685 33.3909 35.7985 32.8842C36.2285 32.3759 36.6318 31.8425 37.0035 31.2892C37.3802 30.7425 37.7318 30.1759 38.0518 29.5892C38.3702 29.0042 38.6635 28.4042 38.9235 27.7925C39.1852 27.1742 39.4118 26.5492 39.6068 25.9109C39.7768 25.3509 39.9202 24.7909 40.0435 24.2175L28.1552 12.3359C26.1302 10.2992 23.3768 9.15921 20.5052 9.15921C17.6268 9.15254 14.8685 10.2992 12.8352 12.3359C10.8068 14.3675 9.66016 17.1209 9.66016 19.9992C9.66016 22.8709 10.8068 25.6309 12.8352 27.6625L24.7052 39.5242V39.5309Z" fill="#10A711"/>
<path fill-rule="evenodd" clip-rule="evenodd" d="M25.4353 16.6666C25.2786 16.68 25.1286 16.7383 24.9986 16.8366L18.9119 21.4066L16.0919 18.58C15.4803 17.95 14.2769 19.1466 14.9136 19.7583L18.2469 23.0916C18.5403 23.3783 18.9969 23.4116 19.3353 23.17L26.0019 18.17C26.5619 17.7666 26.2169 16.68 25.5203 16.6666H25.4353ZM20.5002 9.16016C23.2735 9.16016 26.0402 10.2218 28.1635 12.3368C30.1935 14.3685 31.3402 17.1218 31.3402 20.0002C31.3402 22.8785 30.1935 25.6318 28.1635 27.6635C26.1318 29.6935 23.3785 30.8402 20.5002 30.8402C17.6218 30.8402 14.8685 29.6935 12.8368 27.6635C10.8068 25.6318 9.66016 22.8785 9.66016 20.0002C9.66016 17.1218 10.8068 14.3685 12.8368 12.3368C14.8685 10.3002 17.6285 9.16016 20.5002 9.16016Z" fill="white"/>
</svg>
