<svg width="20" height="20" viewBox="0 0 20 20" fill="none" xmlns="http://www.w3.org/2000/svg">
<g clip-path="url(#clip0_328_8046)">
<path d="M6.32812 0.898438C6.94688 0.898438 7.56563 0.898438 8.20312 0.898438C8.20312 1.49141 8.20312 2.08438 8.20312 2.69531C10.3043 2.69531 12.4055 2.69531 14.5703 2.69531C14.5703 3.31406 14.5703 3.93281 14.5703 4.57031C13.6809 4.57031 12.7914 4.57031 11.875 4.57031C11.8492 4.68633 11.8234 4.80234 11.7969 4.92188C11.7575 5.0541 11.7102 5.18304 11.6626 5.3125C11.649 5.34953 11.6354 5.38655 11.6213 5.4247C11.1408 6.70853 10.5161 7.96653 9.6875 9.0625C9.64651 9.11909 9.60562 9.17576 9.56482 9.23248C9.3209 9.57013 9.07169 9.89683 8.79247 10.2063C8.69581 10.3139 8.6092 10.4116 8.55469 10.5469C8.59361 10.5869 8.63271 10.6267 8.67188 10.6665C8.69363 10.6887 8.71538 10.7109 8.73779 10.7338C8.81189 10.8048 8.88721 10.8712 8.96515 10.9378C9.16511 11.1124 9.35147 11.2997 9.53857 11.4879C9.57578 11.5252 9.61299 11.5624 9.65021 11.5997C9.74714 11.6968 9.84394 11.7939 9.94072 11.8912C10.0399 11.9908 10.1392 12.0902 10.2385 12.1897C10.4325 12.3842 10.6265 12.5788 10.8203 12.7734C10.7475 13.0261 10.6662 13.2729 10.5721 13.5184C10.5541 13.5657 10.5541 13.5657 10.5358 13.6139C10.4981 13.713 10.4602 13.8121 10.4224 13.9111C10.3965 13.979 10.3707 14.0468 10.3449 14.1147C10.2822 14.2796 10.2193 14.4445 10.1562 14.6094C10 14.6094 10 14.6094 9.93868 14.5673C9.91895 14.5474 9.89922 14.5275 9.87889 14.5071C9.85599 14.4844 9.8331 14.4617 9.80951 14.4383C9.77255 14.4005 9.77255 14.4005 9.73484 14.362C9.70853 14.3357 9.68222 14.3094 9.65511 14.2823C9.56808 14.1952 9.48161 14.1075 9.39514 14.0198C9.33497 13.9593 9.27476 13.8989 9.21452 13.8385C9.05594 13.6793 8.89784 13.5197 8.73983 13.3599C8.57855 13.1971 8.41684 13.0346 8.25516 12.8722C7.9379 12.5532 7.62114 12.2338 7.30469 11.9141C7.16251 11.974 7.07264 12.0588 6.96461 12.1679C6.94672 12.1859 6.92883 12.2039 6.9104 12.2224C6.8506 12.2825 6.79109 12.3429 6.73157 12.4033C6.68871 12.4465 6.64584 12.4897 6.60295 12.5328C6.51068 12.6257 6.41853 12.7188 6.32646 12.8119C6.18096 12.959 6.0351 13.1057 5.88917 13.2524C5.47427 13.6696 5.05977 14.0871 4.64584 14.5052C4.41719 14.7362 4.18819 14.9668 3.9588 15.197C3.81353 15.3429 3.66871 15.4891 3.52419 15.6357C3.43436 15.7266 3.34412 15.8171 3.25376 15.9075C3.21183 15.9496 3.17006 15.9919 3.12848 16.0344C3.07185 16.0921 3.01465 16.1493 2.95727 16.2063C2.92535 16.2385 2.89344 16.2707 2.86055 16.3039C2.77344 16.3672 2.77344 16.3672 2.68787 16.3609C2.60426 16.3221 2.55308 16.2781 2.48829 16.2125C2.46406 16.1883 2.43982 16.164 2.41486 16.1391C2.38918 16.1128 2.3635 16.0865 2.33704 16.0594C2.31038 16.0326 2.28372 16.0058 2.25626 15.9781C2.17121 15.8924 2.08658 15.8063 2.00195 15.7202C1.94435 15.662 1.88673 15.6039 1.82907 15.5457C1.68782 15.4032 1.54694 15.2603 1.40625 15.1172C1.46737 14.9603 1.57797 14.8671 1.70123 14.7586C2.00151 14.4876 2.28649 14.2024 2.57166 13.9157C2.66538 13.8214 2.75924 13.7273 2.85312 13.6332C3.05209 13.4338 3.25091 13.2343 3.44971 13.0347C3.68103 12.8024 3.91242 12.5702 4.14397 12.3382C4.23597 12.246 4.32784 12.1536 4.41971 12.0612C4.47648 12.0043 4.53326 11.9474 4.59004 11.8905C4.61515 11.8652 4.64026 11.8399 4.66613 11.8138C4.81455 11.6654 4.96755 11.5246 5.12678 11.3878C5.22079 11.3059 5.30888 11.2189 5.39673 11.1305C5.43097 11.0962 5.46521 11.0618 5.50049 11.0264C5.55245 10.9739 5.55245 10.9739 5.60547 10.9204C5.64132 10.8844 5.67717 10.8484 5.71411 10.8112C5.80169 10.7232 5.88917 10.6351 5.97656 10.5469C5.90792 10.4016 5.82185 10.2968 5.71533 10.1758C4.81122 9.12618 4.10422 7.94824 3.47656 6.71875C3.46059 6.68794 3.44461 6.65713 3.42815 6.62539C3.32031 6.41515 3.32031 6.41515 3.32031 6.32812C3.93906 6.32812 4.55781 6.32812 5.19531 6.32812C5.26863 6.46025 5.34194 6.59238 5.41748 6.72852C5.94418 7.66417 6.5581 8.52798 7.26562 9.33594C7.80569 8.78353 8.25879 8.15141 8.67188 7.5C8.69917 7.45735 8.72646 7.4147 8.75458 7.37076C9.29784 6.50312 9.72888 5.56979 10.0781 4.60938C6.75234 4.59648 3.42656 4.58359 0 4.57031C0 3.95156 0 3.33281 0 2.69531C2.08828 2.69531 4.17656 2.69531 6.32812 2.69531C6.32812 2.10234 6.32812 1.50938 6.32812 0.898438Z" fill="#98A2B3"/>
<path d="M14.0625 8.16406C14.6813 8.16406 15.3 8.16406 15.9375 8.16406C16.2635 9.01445 16.5867 9.86572 16.9059 10.7187C16.9625 10.8698 17.0191 11.0209 17.0757 11.172C17.1584 11.3928 17.2411 11.6136 17.3238 11.8344C17.5256 12.373 17.7275 12.9116 17.9295 13.4501C18.0056 13.6529 18.0816 13.8556 18.1576 14.0583C18.3615 14.602 18.5654 15.1458 18.7694 15.6895C18.853 15.9121 18.9365 16.1346 19.02 16.3572C19.0765 16.5079 19.133 16.6585 19.1895 16.8092C19.3012 17.1065 19.4127 17.4038 19.5239 17.7013C19.5816 17.8555 19.6395 18.0097 19.6975 18.1638C19.7257 18.2388 19.7539 18.3139 19.782 18.389C19.8165 18.4811 19.8511 18.5731 19.8859 18.6651C19.901 18.7056 19.9161 18.7461 19.9316 18.7878C19.9449 18.8231 19.9582 18.8584 19.9719 18.8948C20 18.9844 20 18.9844 20 19.1016C19.3941 19.1016 18.7883 19.1016 18.1641 19.1016C17.9443 18.574 17.9443 18.574 17.8713 18.38C17.8467 18.3148 17.8467 18.3148 17.8216 18.2482C17.8046 18.203 17.7877 18.1578 17.7702 18.1113C17.7523 18.0636 17.7344 18.0159 17.7159 17.9667C17.6784 17.8669 17.6409 17.767 17.6035 17.6671C17.5556 17.5391 17.5074 17.4111 17.4592 17.2831C17.413 17.1604 17.367 17.0377 17.321 16.915C17.3037 16.869 17.2864 16.823 17.2685 16.7757C17.2527 16.7334 17.2369 16.6911 17.2206 16.6475C17.2067 16.6103 17.1927 16.573 17.1783 16.5346C17.1484 16.4453 17.1484 16.4453 17.1484 16.3672C15.7305 16.3672 14.3125 16.3672 12.8516 16.3672C12.8129 16.4961 12.7742 16.625 12.7344 16.7578C12.6986 16.8598 12.6623 16.961 12.6242 17.0621C12.614 17.0894 12.6039 17.1167 12.5934 17.1448C12.5608 17.2323 12.5279 17.3198 12.4951 17.4072C12.4724 17.4679 12.4498 17.5286 12.4271 17.5892C12.3818 17.7105 12.3364 17.8317 12.291 17.9529C12.2325 18.109 12.1744 18.2653 12.1164 18.4216C12.0848 18.5067 12.0531 18.5917 12.0215 18.6768C12.007 18.7158 11.9926 18.7549 11.9777 18.7951C11.9645 18.8303 11.9514 18.8654 11.9379 18.9017C11.9266 18.932 11.9153 18.9624 11.9036 18.9937C11.875 19.0625 11.875 19.0625 11.8359 19.1016C11.7784 19.1052 11.7206 19.1062 11.663 19.106C11.6262 19.106 11.5895 19.106 11.5516 19.106C11.5116 19.1058 11.4717 19.1056 11.4305 19.1054C11.3695 19.1053 11.3695 19.1053 11.3072 19.1052C11.1766 19.105 11.0461 19.1045 10.9155 19.104C10.8273 19.1038 10.739 19.1036 10.6507 19.1035C10.4338 19.103 10.2169 19.1024 10 19.1016C10.0578 18.7959 10.1598 18.5148 10.2708 18.2249C10.2906 18.1728 10.3104 18.1206 10.3301 18.0685C10.3725 17.9565 10.415 17.8445 10.4577 17.7326C10.5262 17.5529 10.5944 17.373 10.6625 17.1931C10.686 17.1311 10.7095 17.069 10.733 17.007C10.7447 16.9759 10.7565 16.9449 10.7686 16.9129C10.8047 16.8175 10.8409 16.7221 10.8771 16.6266C11.1151 15.9993 11.3507 15.3711 11.5861 14.7427C11.6408 14.5967 11.6955 14.4508 11.7502 14.3048C11.8274 14.0988 11.9046 13.8929 11.9818 13.6869C12.128 13.2968 12.2742 12.9067 12.4205 12.5166C12.4317 12.4867 12.4429 12.4568 12.4545 12.4259C12.5661 12.1284 12.6776 11.8309 12.7892 11.5335C12.8432 11.3896 12.8971 11.2458 12.951 11.102C12.9616 11.0739 12.9721 11.0458 12.983 11.0169C13.1288 10.6279 13.2746 10.2389 13.4203 9.84982C13.4784 9.69472 13.5365 9.53963 13.5946 9.38454C13.6398 9.26365 13.6851 9.14275 13.7303 9.02184C13.7793 8.89103 13.8283 8.76024 13.8773 8.62946C13.8916 8.59095 13.906 8.55244 13.9209 8.51277C13.9339 8.47794 13.947 8.44311 13.9604 8.40723C13.9717 8.37703 13.983 8.34682 13.9947 8.3157C14.0234 8.24219 14.0234 8.24219 14.0625 8.16406ZM14.9609 10.7031C14.9475 10.7402 14.934 10.7772 14.9202 10.8154C14.8533 10.9994 14.7863 11.1833 14.7192 11.3672C14.7004 11.4188 14.7004 11.4188 14.6812 11.4715C14.5074 11.9474 14.3315 12.4224 14.1534 12.8967C14.1441 12.9216 14.1347 12.9465 14.1251 12.9722C14.0316 13.2213 13.9379 13.4704 13.8441 13.7193C13.8174 13.7903 13.7907 13.8612 13.764 13.9322C13.731 14.0199 13.6979 14.1075 13.6648 14.1952C13.6502 14.2338 13.6357 14.2725 13.6207 14.3124C13.6079 14.3463 13.5951 14.3802 13.5819 14.4152C13.5525 14.4847 13.5525 14.4847 13.5547 14.5312C14.5086 14.5312 15.4625 14.5312 16.4453 14.5312C16.2796 14.0578 16.1132 13.5858 15.937 13.1163C15.9159 13.0598 15.8948 13.0032 15.8737 12.9467C15.819 12.8005 15.7643 12.6543 15.7095 12.5082C15.6215 12.2732 15.5336 12.0382 15.4458 11.8032C15.4155 11.7223 15.3852 11.6414 15.3549 11.5605C15.2481 11.2752 15.1424 10.9896 15.0391 10.7031C15.0133 10.7031 14.9875 10.7031 14.9609 10.7031Z" fill="#98A2B3"/>
</g>
<defs>
<clipPath id="clip0_328_8046">
<rect width="20" height="20" fill="white"/>
</clipPath>
</defs>
</svg>
