<svg width="21" height="20" viewBox="0 0 21 20" fill="none" xmlns="http://www.w3.org/2000/svg">
<g clip-path="url(#clip0_725_3408)">
<path d="M19.4168 3.33331V8.33332M19.4168 8.33332H14.4168M19.4168 8.33332L15.5502 4.69998C14.6545 3.80391 13.5465 3.14932 12.3295 2.79729C11.1125 2.44527 9.82608 2.40727 8.5904 2.68686C7.35472 2.96645 6.21 3.55451 5.26305 4.39616C4.31611 5.23782 3.5978 6.30564 3.17516 7.49998M1.0835 16.6666V11.6666M1.0835 11.6666H6.0835M1.0835 11.6666L4.95016 15.3C5.84579 16.1961 6.95381 16.8506 8.17084 17.2027C9.38787 17.5547 10.6742 17.5927 11.9099 17.3131C13.1456 17.0335 14.2903 16.4455 15.2373 15.6038C16.1842 14.7621 16.9025 13.6943 17.3252 12.5" stroke="black" stroke-width="1.67" stroke-linecap="round" stroke-linejoin="round"/>
</g>
<defs>
<clipPath id="clip0_725_3408">
<rect width="20" height="20" fill="white" transform="translate(0.25)"/>
</clipPath>
</defs>
</svg>
