<svg width="41" height="40" viewBox="0 0 41 40" fill="none" xmlns="http://www.w3.org/2000/svg">
<circle cx="20.5" cy="20" r="19" stroke="#D92D20" stroke-width="2"/>
<g clip-path="url(#clip0_759_10572)">
<path d="M14.2627 11.2742C14.3508 11.3541 14.4342 11.438 14.5173 11.5231C14.5517 11.5577 14.5517 11.5577 14.5868 11.5931C14.6592 11.6661 14.7314 11.7394 14.8036 11.8128C14.8757 11.886 14.948 11.9591 15.0203 12.0321C15.065 12.0773 15.1097 12.1226 15.1542 12.1679C15.2551 12.27 15.3572 12.3678 15.4668 12.4604C15.6914 12.6561 15.899 12.8697 16.1092 13.0805C16.1568 13.1282 16.2044 13.1758 16.2521 13.2234C16.3807 13.3521 16.5093 13.4808 16.6378 13.6096C16.7724 13.7444 16.9071 13.8791 17.0417 14.0138C17.2964 14.2686 17.551 14.5235 17.8056 14.7785C18.0956 15.0688 18.3856 15.3591 18.6757 15.6493C19.2721 16.2461 19.8684 16.843 20.4646 17.44C20.6409 17.2932 20.8065 17.1391 20.9681 16.9763C20.992 16.9522 21.016 16.9282 21.0407 16.9035C21.1204 16.8236 21.1999 16.7436 21.2795 16.6636C21.3368 16.6061 21.3942 16.5486 21.4515 16.491C21.5748 16.3674 21.698 16.2438 21.8212 16.1201C22.0161 15.9243 22.2112 15.7287 22.4063 15.5332C22.68 15.2589 22.9537 14.9845 23.2273 14.7101C23.2534 14.6841 23.2534 14.6841 23.2799 14.6575C23.5608 14.3757 23.8416 14.0939 24.1224 13.812C24.4112 13.5219 24.7003 13.2321 24.9895 12.9425C25.1834 12.7483 25.377 12.5539 25.5705 12.3594C25.6911 12.2382 25.812 12.1172 25.9329 11.9963C25.9887 11.9403 26.0444 11.8843 26.1001 11.8282C26.602 11.3222 27.0575 10.908 27.8023 10.9023C28.2502 10.9016 28.5788 11.0034 28.9382 11.2742C28.9694 11.295 29.0006 11.3158 29.0328 11.3373C29.362 11.6491 29.5641 12.0861 29.5945 12.5365C29.6028 13.0884 29.4552 13.5326 29.0751 13.9335C28.9412 14.0708 28.8051 14.2057 28.6688 14.3404C28.6076 14.4016 28.5465 14.4627 28.4854 14.5239C28.3373 14.6721 28.1887 14.8199 28.0399 14.9675C27.8667 15.1394 27.694 15.3119 27.5214 15.4843C27.2135 15.7918 26.9052 16.0989 26.5966 16.4058C26.2971 16.7037 25.9977 17.0017 25.6986 17.3001C25.6802 17.3185 25.6617 17.3369 25.6427 17.3559C25.55 17.4483 25.4573 17.5407 25.3647 17.6332C24.5973 18.3987 23.8292 19.1636 23.0608 19.928C23.1248 20.0652 23.2045 20.1529 23.3121 20.2604C23.3305 20.2789 23.3489 20.2974 23.3679 20.3164C23.4296 20.3784 23.4916 20.44 23.5535 20.5017C23.5979 20.546 23.6422 20.5904 23.6865 20.6348C23.8068 20.7554 23.9275 20.8757 24.0481 20.996C24.1745 21.122 24.3006 21.2483 24.4268 21.3745C24.6389 21.5866 24.8512 21.7985 25.0636 22.0104C25.3086 22.2549 25.5535 22.4996 25.7983 22.7444C26.0593 23.0054 26.3203 23.2662 26.5815 23.527C26.6565 23.6019 26.7315 23.6769 26.8065 23.7519C26.9247 23.8701 27.043 23.9882 27.1614 24.1062C27.2047 24.1494 27.248 24.1926 27.2912 24.2358C27.4912 24.436 27.6913 24.6341 27.9065 24.8181C27.9802 24.8813 28.05 24.948 28.1191 25.0161C28.1457 25.0422 28.1723 25.0683 28.1997 25.0953C28.2274 25.1227 28.2551 25.1501 28.2836 25.1784C28.313 25.2075 28.3424 25.2366 28.3727 25.2666C28.4345 25.3279 28.4962 25.3892 28.5579 25.4506C28.6205 25.5128 28.6833 25.5748 28.7462 25.6367C28.838 25.7269 28.9293 25.8177 29.0206 25.9085C29.0483 25.9357 29.0761 25.9628 29.1047 25.9908C29.5143 26.402 29.743 26.8453 29.7495 27.428C29.744 27.9229 29.6018 28.2995 29.259 28.662C28.8706 29.0292 28.4128 29.1618 27.8862 29.158C27.3144 29.1292 26.8567 28.9048 26.4585 28.4993C26.4327 28.4737 26.4069 28.448 26.3803 28.4216C26.2949 28.3364 26.21 28.2507 26.1251 28.165C26.0636 28.1035 26.0021 28.042 25.9406 27.9805C25.7914 27.8314 25.6426 27.682 25.494 27.5324C25.3209 27.3583 25.1473 27.1845 24.9738 27.0108C24.6643 26.7011 24.3552 26.391 24.0463 26.0807C23.7464 25.7794 23.4463 25.4783 23.146 25.1775C23.1275 25.1589 23.1089 25.1403 23.0898 25.1212C22.9968 25.028 22.9038 24.9348 22.8108 24.8416C22.0403 24.0696 21.2703 23.297 20.5007 22.5242C20.3222 22.6737 20.1547 22.8293 19.9911 22.9948C19.9665 23.0196 19.9418 23.0443 19.9165 23.0698C19.8346 23.1522 19.7528 23.2347 19.671 23.3172C19.612 23.3765 19.5531 23.4358 19.4941 23.4951C19.3674 23.6225 19.2407 23.75 19.114 23.8775C18.9135 24.0794 18.7128 24.281 18.512 24.4826C18.4777 24.517 18.4434 24.5514 18.4091 24.5859C18.3572 24.638 18.3052 24.6901 18.2533 24.7423C18.0578 24.9385 17.8623 25.1348 17.6668 25.3311C17.649 25.349 17.6311 25.367 17.6128 25.3854C17.3237 25.6758 17.035 25.9664 16.7464 26.2572C16.4494 26.5564 16.1519 26.8551 15.8541 27.1536C15.6872 27.3208 15.5205 27.4883 15.3543 27.6563C15.1978 27.8144 15.0409 27.9719 14.8835 28.1291C14.8261 28.1866 14.7688 28.2444 14.7118 28.3023C14.246 28.775 13.8298 29.1257 13.1369 29.1365C12.592 29.1355 12.1456 29.0787 11.7332 28.6888C11.3438 28.2776 11.2477 27.8321 11.2586 27.2827C11.2963 26.4491 12.0666 25.8686 12.615 25.3216C12.6733 25.2633 12.7316 25.205 12.7899 25.1467C12.947 24.9896 13.1042 24.8326 13.2614 24.6756C13.4262 24.5111 13.5908 24.3465 13.7555 24.1819C14.0314 23.906 14.3075 23.6302 14.5835 23.3545C14.8677 23.0706 15.1518 22.7868 15.4359 22.5029C15.4534 22.4853 15.471 22.4678 15.4891 22.4497C15.5772 22.3616 15.6653 22.2736 15.7534 22.1855C16.4823 21.4569 17.2114 20.7285 17.9406 20.0001C17.7911 19.8217 17.6355 19.6543 17.4699 19.4908C17.4452 19.4662 17.4204 19.4416 17.395 19.4163C17.3126 19.3344 17.2301 19.2527 17.1476 19.171C17.0883 19.1121 17.029 19.0532 16.9697 18.9943C16.8422 18.8677 16.7147 18.7412 16.5872 18.6146C16.3853 18.4143 16.1837 18.2137 15.9821 18.013C15.9477 17.9787 15.9133 17.9445 15.8789 17.9102C15.8092 17.8408 15.7396 17.7715 15.6699 17.7021C15.4912 17.5242 15.3124 17.3462 15.1336 17.1683C15.1068 17.1415 15.1068 17.1415 15.0793 17.1142C14.789 16.8254 14.4984 16.5369 14.2076 16.2486C13.9083 15.9519 13.6096 15.6547 13.3112 15.357C13.144 15.1902 12.9765 15.0236 12.8085 14.8576C12.6503 14.7013 12.4928 14.5444 12.3357 14.3871C12.2781 14.3297 12.2204 14.2725 12.1624 14.2155C11.6928 13.7539 11.3514 13.3187 11.3285 12.6376C11.3365 12.1341 11.5297 11.6715 11.8829 11.3102C12.5979 10.7283 13.5388 10.6926 14.2627 11.2742Z" fill="#D92D20"/>
</g>
<defs>
<clipPath id="clip0_759_10572">
<rect width="18.4615" height="18.4615" fill="white" transform="translate(11.2695 10.7695)"/>
</clipPath>
</defs>
</svg>
